<svg width="160" height="143" viewBox="0 0 160 143" fill="none" xmlns="http://www.w3.org/2000/svg">
<path d="M28.9661 7.68228C29.1892 7.60927 29.4237 7.57086 29.6602 7.56841C30.2248 7.55953 30.7722 7.74903 31.1933 8.09908C31.6144 8.44913 31.8782 8.93404 31.9322 9.45709C31.9862 9.98014 31.8263 10.5028 31.4845 10.9211C31.1427 11.3393 30.644 11.6223 30.088 11.7135C29.5319 11.8048 28.9594 11.6977 28.4845 11.4135C28.0095 11.1294 27.6671 10.689 27.5255 10.1804C27.384 9.67168 27.4537 9.13211 27.7207 8.66911C27.9877 8.20611 28.4324 7.85368 28.9661 7.68228Z" fill="white"/>
<path d="M20.1011 18.5165V18.8303C13.9295 19.6482 6.94961 21.1932 3.92504 22.6223C3.92504 22.6223 2.0346 23.781 0.983521 22.6223C0.983521 22.6223 17.9149 14.4146 24.5077 14.4146C22.8424 15.586 21.3594 16.9665 20.1011 18.5165Z" fill="white"/>
<path d="M21.5723 10.3049L25.9831 8.93663L28.9246 7.56836L28.9661 7.68222C28.6868 7.76268 28.4275 7.89426 28.2035 8.0692C27.9795 8.24414 27.7953 8.45905 27.6617 8.70112C27.5281 8.94319 27.4477 9.20761 27.4254 9.47896C27.403 9.7503 27.4392 10.023 27.5316 10.2812C27.624 10.5394 27.7709 10.7779 27.9637 10.9825C28.1564 11.1872 28.3911 11.3539 28.654 11.473C28.917 11.5921 29.2028 11.6613 29.4948 11.6762C29.7868 11.6912 30.079 11.6518 30.3544 11.5602L30.3949 11.6741C28.2509 12.1992 26.2466 13.1308 24.5076 14.4106C17.9148 14.4155 0.98341 22.6184 0.98341 22.6184C0.302752 21.87 8.34408 16.088 21.5723 10.3049Z" fill="white"/>
<path d="M52.4541 31.5581C52.2477 31.5581 52.0498 31.4817 51.9038 31.3459C51.7579 31.2101 51.6759 31.0259 51.6759 30.8338C51.6759 30.6418 51.7579 30.4575 51.9038 30.3217C52.0498 30.1859 52.2477 30.1096 52.4541 30.1096C58.5053 30.1096 63.4992 22.3335 63.549 22.2553C63.5994 22.1707 63.6674 22.0963 63.7491 22.0365C63.8309 21.9768 63.9247 21.9328 64.0249 21.9073C64.1252 21.8819 64.2299 21.8754 64.333 21.8882C64.436 21.9011 64.5352 21.9329 64.6248 21.982C64.7144 22.031 64.7925 22.0964 64.8545 22.1741C64.9165 22.2517 64.9611 22.3401 64.9858 22.4341C65.0105 22.5281 65.0147 22.6256 64.9981 22.7211C64.9816 22.8166 64.9447 22.9081 64.8896 22.9901C64.6686 23.3406 59.3852 31.5581 52.4541 31.5581Z" fill="white"/>
<path d="M42.1644 35.1009C42.0452 35.101 41.9276 35.0756 41.8205 35.0267C41.7135 34.9779 41.6199 34.9067 41.5471 34.8189C40.5782 33.7244 40.0075 32.372 39.917 30.9565C39.9071 30.7644 39.9796 30.5765 40.1185 30.4342C40.2575 30.2918 40.4515 30.2067 40.6579 30.1975C40.8643 30.1883 41.0661 30.2557 41.2191 30.385C41.372 30.5143 41.4635 30.6949 41.4734 30.8869C41.6728 32.0049 42.1367 33.0676 42.8316 33.9982C42.9029 34.108 42.9416 34.2334 42.9437 34.3617C42.9459 34.49 42.9113 34.6165 42.8437 34.7283C42.776 34.8401 42.6777 34.9331 42.5587 34.9979C42.4397 35.0627 42.3043 35.097 42.1665 35.0971L42.1644 35.1009Z" fill="white"/>
<path d="M40.6939 31.6661C40.4966 31.6658 40.3069 31.5959 40.1628 31.4704C40.0188 31.345 39.9312 31.1734 39.9178 30.9902C39.9095 30.883 39.9116 30.8222 39.9116 30.8222C39.9165 30.6328 40.0004 30.4525 40.1457 30.3198C40.291 30.1872 40.4862 30.1124 40.6898 30.1115H40.6991C40.9033 30.1127 41.0987 30.1891 41.2427 30.3239C41.3867 30.4586 41.4677 30.6408 41.468 30.8308H41.4161H41.4659V30.8859L41.1422 30.9071L41.4669 30.9188C41.4723 31.1079 41.3979 31.2913 41.2596 31.43C41.1213 31.5686 40.9302 31.6513 40.7272 31.6603L40.6939 31.6661Z" fill="white"/>
<path d="M139.219 88.3149C139.219 88.3149 144.364 93.4066 149.03 97.0422C151.579 101.628 152.288 104.738 149.514 104.738C138.939 104.738 123.105 84.2091 123.105 84.2091C132.878 88.5341 139.219 88.3149 139.219 88.3149Z" fill="white"/>
<path d="M30.3952 11.6741L30.3548 11.5602C30.8523 11.408 31.2752 11.0956 31.5473 10.6791C31.8195 10.2627 31.9231 9.76948 31.8394 9.28833C31.7557 8.80718 31.4903 8.36963 31.0909 8.05432C30.6915 7.73902 30.1843 7.56671 29.6606 7.56833C29.4241 7.57078 29.1896 7.60919 28.9665 7.6822L28.925 7.56833L25.9834 8.9366L21.5726 10.3049C21.5726 10.3049 22.9163 9.88967 24.5131 7.56833C26.2223 5.44065 28.4419 3.71396 30.9951 2.52585C33.5482 1.33775 36.3643 0.721045 39.2188 0.724994C46.9914 0.724994 56.8661 3.46247 56.8661 3.46247L53.9256 4.83074C58.1915 6.50255 61.7902 9.3719 64.2196 13.0385C64.2196 13.0385 62.1184 10.5926 59.8077 10.301C59.8077 10.301 65.5591 17.3635 64.2196 22.6183C64.2196 22.6183 70.0695 14.4106 78.9253 14.4106C87.7811 14.4106 96.2468 19.0784 102.455 23.9914C108.663 28.9045 149.514 61.2101 149.514 74.6283V77.3657L145.103 73.26C145.103 73.26 158.338 87.0596 158.338 95.1572C158.338 95.1572 159.135 100.632 155.397 100.632C154.062 100.632 151.619 99.0603 149.03 97.0421C144.361 93.4066 139.22 88.3148 139.22 88.3148C139.22 88.3148 132.876 88.5341 123.105 84.2091C114.861 80.404 107.379 75.3119 100.984 69.1541C100.984 69.1541 86.8877 69.0364 80.3955 54.1003C80.3955 54.1003 76.7225 54.0635 74.5134 47.2569C72.3044 40.4503 64.2196 32.2021 64.2196 32.2021C64.2196 32.2021 61.9182 39.0454 53.9256 39.0454C48.442 39.0454 44.2542 36.9036 42.1645 34.3766C41.4026 33.3494 40.9 32.1753 40.6943 30.9419C40.6943 30.9062 40.6943 30.8695 40.6943 30.8338C40.6943 27.1732 40.9018 24.426 45.1061 19.8857C45.1061 19.8857 34.7499 19.6771 30.3993 18.5165C28.5784 18.0337 24.5515 18.2422 20.1055 18.8302V18.5165C24.8794 12.6764 30.3952 11.6741 30.3952 11.6741Z" fill="white"/>
<path d="M100.984 85.5774H96.5723L89.498 72.4103C93.1625 74.7617 97.0007 76.8694 100.984 78.7177V85.5774Z" fill="white"/>
<path d="M115.69 86.9457L121.573 96.5265V103.369C121.573 103.369 118.632 121.66 118.632 137.583L127.451 138.953C129.276 138.573 131.174 138.625 132.972 139.103C134.77 139.581 136.411 140.47 137.745 141.689C137.745 141.689 130.228 140.473 128.926 141.689H87.7489C87.7489 141.689 86.6075 142 84.8073 140.321C84.8073 140.321 80.8644 139.881 78.9252 141.689C78.9252 141.689 80.2741 138.953 86.2786 138.953C92.2831 138.953 108.362 139.16 112.75 136.215C112.75 136.215 115.69 119.62 115.69 107.475V96.5265L109.808 86.9457H115.69Z" fill="white"/>
<path d="M100.984 85.5774L105.396 100.632L102.454 107.475L90.6902 137.583L93.6308 138.953H86.2784C83.5397 138.948 80.9049 139.928 78.925 141.689H59.8074C59.8074 141.689 58.7211 142.182 56.8659 140.321C56.8659 140.321 52.923 140.17 50.9838 141.689C50.9838 141.689 51.2007 138.953 58.3372 138.953H73.0429C73.0429 138.953 84.4294 138.313 86.2784 134.847C88.1274 131.38 98.0426 104.738 98.0426 104.738L99.5139 99.263L96.5723 85.5774H100.984Z" fill="white"/>
<path d="M100.984 69.1495C107.379 75.3073 114.861 80.3994 123.105 84.2044H123.043C120.574 84.1936 118.112 83.9627 115.69 83.515V86.941H108.338L102.273 79.2914C101.841 79.1021 101.411 78.909 100.984 78.712C97.0008 76.8638 93.1626 74.7561 89.4982 72.4047C85.8199 70.0611 82.7061 67.7697 80.3954 65.9669V54.0898C86.8876 69.0366 100.984 69.1495 100.984 69.1495Z" fill="white"/>
<path d="M53.9254 39.0456C61.9148 39.0456 64.2193 32.2023 64.2193 32.2023C64.2193 32.2023 72.3041 40.4505 74.5132 47.2571C76.7222 54.0637 80.3953 54.1004 80.3953 54.1004V65.9775C77.601 63.7933 75.9835 62.3169 75.9835 62.3169V67.7909C73.9083 60.5652 65.6896 52.7361 65.6896 52.7361V62.3169C65.6896 54.2637 56.8701 47.2619 56.8701 47.2619C47.9665 41.4953 43.9676 37.151 42.1685 34.3816C44.254 36.9038 48.4417 39.0456 53.9254 39.0456Z" fill="white"/>
<path d="M43.6304 4.83069C57.2529 4.83069 61.2414 18.7877 62.3474 25.0806C61.1576 26.4926 59.7745 27.7538 58.2334 28.8321C56.926 7.95452 43.6304 4.83069 43.6304 4.83069Z" fill="white"/>
<path d="M159.115 95.1111C159.085 89.9083 154.009 82.6545 150.103 77.84C150.225 77.7084 150.293 77.5401 150.292 77.3659V74.6284C150.292 62.2367 117.214 34.7206 102.959 23.4394C97.3361 18.9908 88.6027 13.6866 78.9251 13.6866C72.4308 13.6866 67.5573 17.7943 65.1781 20.3145C64.7891 17.3599 63.6897 14.5248 61.9615 12.02C62.5659 12.4558 63.119 12.95 63.6113 13.4944C63.7341 13.6359 63.9095 13.7292 64.1028 13.7559C64.296 13.7825 64.493 13.7405 64.6546 13.6382C64.8161 13.5359 64.9304 13.3808 64.9747 13.2038C65.019 13.0267 64.9901 12.8406 64.8938 12.6824C62.6989 9.30173 59.5193 6.56931 55.7236 4.80202L57.2136 4.10963C57.3532 4.04469 57.4687 3.94214 57.545 3.81531C57.6212 3.68847 57.6546 3.54328 57.641 3.39851C57.6273 3.25374 57.5672 3.11605 57.4684 3.00352C57.3696 2.89098 57.2367 2.80872 57.087 2.76742C56.6802 2.65444 47.0141 0 39.2176 0C31.5685 0 25.841 4.29216 23.8613 7.17645C23.2824 8.19654 22.4045 9.04292 21.3296 9.61747C21.3008 9.62607 21.2727 9.63681 21.2456 9.64942C9.71485 14.6899 0.622448 20.4797 0.196 22.2883C0.158172 22.4564 0.171454 22.6309 0.234377 22.7924C0.261248 22.8956 0.312679 22.992 0.384848 23.0743C0.384848 23.0743 0.384836 23.084 0.392099 23.0879C0.612426 23.3366 0.890683 23.5354 1.20582 23.6692C1.52095 23.803 1.86469 23.8684 2.21098 23.8603C2.95881 23.8385 3.68633 23.6286 4.31624 23.2529C7.08349 21.959 13.7583 20.4053 20.2142 19.5498C24.9114 18.927 28.6384 18.8015 30.1844 19.2157C33.5898 20.1234 40.4025 20.4565 43.5008 20.5675C40.1805 24.541 39.9149 27.2699 39.9149 30.8292V30.8407C39.9149 30.8494 39.9149 30.8832 39.9149 30.9372V30.9441V30.9895V31.0001C39.9201 31.0773 39.9356 31.1883 39.9574 31.3148C40.1159 32.5697 40.6461 33.7589 41.4889 34.7495L41.4941 34.7573C43.2507 37.461 47.2589 41.9211 56.3845 47.8355C56.9095 48.2632 64.9072 54.8999 64.9072 62.3197C64.9072 62.5118 64.9892 62.696 65.1352 62.8318C65.2811 62.9677 65.479 63.0439 65.6854 63.0439C65.8918 63.0439 66.0898 62.9677 66.2357 62.8318C66.3816 62.696 66.4636 62.5118 66.4636 62.3197V54.6054C68.8501 57.1305 73.733 62.762 75.2282 67.9811C75.2721 68.1353 75.3696 68.2716 75.5055 68.3689C75.6413 68.4662 75.8079 68.519 75.9794 68.519C76.0141 68.519 76.0487 68.5171 76.0831 68.5132C76.2702 68.49 76.442 68.4044 76.5664 68.2723C76.6909 68.1401 76.7595 67.9705 76.7597 67.7948V63.9903C77.5119 64.6276 78.5692 65.5005 79.8931 66.5356C82.7984 68.8029 85.8198 70.9436 88.888 72.9087L95.8284 85.8266L98.714 99.2574L97.2946 104.542C96.9086 105.577 87.3576 131.202 85.5792 134.536C84.2303 137.07 76.0334 138.069 73.041 138.24H58.3373C50.6975 138.24 50.2347 141.299 50.2077 141.648C50.1965 141.79 50.2305 141.932 50.3056 142.056C50.3806 142.18 50.4934 142.281 50.6298 142.346C50.7661 142.411 50.92 142.437 51.0721 142.421C51.2243 142.405 51.3679 142.347 51.485 142.255C52.7592 141.258 55.3241 141.051 56.5288 141.051C56.8841 141.458 57.323 141.795 57.8199 142.041C58.3168 142.288 58.8617 142.44 59.4226 142.489C59.5978 142.49 59.7724 142.469 59.9414 142.426H78.9293C78.9398 142.424 78.9501 142.422 78.9604 142.419C79.0337 142.416 79.1061 142.402 79.1752 142.379C79.198 142.372 79.2208 142.371 79.2426 142.362C79.331 142.327 79.4116 142.276 79.4802 142.214C80.8727 140.918 83.6254 140.981 84.4689 141.032C85.2469 141.85 86.3338 142.358 87.5039 142.45C87.6144 142.45 87.7247 142.442 87.8338 142.426H128.93C129.136 142.426 129.334 142.349 129.481 142.214C130.023 141.708 133.826 141.802 137.62 142.414C137.783 142.441 137.951 142.419 138.1 142.351C138.248 142.282 138.369 142.172 138.445 142.035C138.522 141.898 138.549 141.743 138.523 141.59C138.498 141.438 138.421 141.298 138.303 141.189C136.898 139.893 135.169 138.943 133.27 138.425C131.372 137.908 129.365 137.839 127.43 138.225L119.415 136.982C119.66 125.772 120.639 114.587 122.346 103.488C122.351 103.453 122.354 103.417 122.354 103.381V96.5382C122.354 96.4121 122.318 96.2884 122.251 96.179L116.47 86.7652V84.4004C118.529 84.7339 120.614 84.9135 122.704 84.9373C124.745 87.5329 139.232 105.474 149.516 105.474C149.942 105.508 150.37 105.433 150.753 105.258C151.137 105.084 151.463 104.815 151.695 104.481C152.337 103.499 152.152 101.882 151.108 99.4862C153.572 101.128 154.722 101.368 155.397 101.368C155.881 101.38 156.361 101.294 156.804 101.114C157.247 100.934 157.643 100.666 157.962 100.328C159.509 98.6674 159.174 95.5639 159.115 95.1111ZM20.8045 16.5951C20.734 16.6675 20.6656 16.7418 20.5971 16.8151C20.2215 17.213 19.8479 17.6273 19.4786 18.0783C19.4487 18.1145 19.4227 18.1533 19.4007 18.1941C15.0907 18.7723 10.8343 19.6552 6.66848 20.8351L6.71934 20.8128C7.24539 20.583 7.79738 20.3455 8.36805 20.1031L8.50085 20.0471C9.07775 19.8028 9.6754 19.5547 10.2845 19.3056L10.4007 19.2572C11.0232 19.0013 11.6686 18.7455 12.3151 18.4925L12.3783 18.4683C13.7199 17.9449 15.0885 17.4389 16.4249 16.9861L16.456 16.9754C17.1045 16.7553 17.7437 16.5486 18.3683 16.3574L18.4907 16.3217C19.0832 16.1421 19.6622 15.978 20.2204 15.8331L20.3916 15.7896C20.9291 15.6525 21.4458 15.5347 21.9376 15.4372L22.029 15.4208L22.0123 15.4363C21.6125 15.7935 21.2116 16.1799 20.8097 16.5951H20.8045ZM30.1035 10.8728C29.9255 10.9326 29.7364 10.9587 29.5474 10.9494C29.3584 10.9402 29.1734 10.8959 29.0031 10.8191C28.8328 10.7423 28.6808 10.6344 28.5559 10.5021C28.4311 10.3698 28.336 10.2156 28.2761 10.0485C28.2163 9.88146 28.193 9.70488 28.2076 9.52931C28.2222 9.35373 28.2745 9.18274 28.3612 9.02623C28.4479 8.86971 28.5674 8.7309 28.7127 8.61803C28.8579 8.50516 29.026 8.42047 29.207 8.36897C29.3505 8.32082 29.5016 8.29507 29.6542 8.2927C29.9929 8.29137 30.3209 8.40266 30.5793 8.60648C30.8377 8.8103 31.0094 9.09319 31.0635 9.40436C31.1175 9.71553 31.0504 10.0345 30.8742 10.3037C30.698 10.5729 30.4243 10.7748 30.1024 10.8728H30.1035ZM21.8567 10.979L26.2249 9.62714C26.2603 9.6158 26.295 9.60257 26.3287 9.58753L26.6804 9.42346C26.6752 9.49008 26.6732 9.55672 26.6732 9.62431C26.674 9.82446 26.6983 10.0239 26.7458 10.2191C26.7603 10.2828 26.7873 10.3407 26.807 10.4025C26.844 10.5277 26.8905 10.6503 26.946 10.7694C26.9803 10.838 27.0218 10.8999 27.0602 10.9626C27.1204 11.0652 27.1872 11.1642 27.2605 11.2591C27.3103 11.3219 27.3642 11.3797 27.4192 11.4386C27.4982 11.5235 27.5828 11.6038 27.6724 11.6791C27.7045 11.7061 27.7284 11.7389 27.7616 11.7641C26.5159 12.2905 25.3335 12.9378 24.2338 13.6953C24.1934 13.6953 24.1477 13.7021 24.1062 13.704C23.8893 13.7137 23.6641 13.729 23.4307 13.7522C23.3653 13.759 23.3031 13.7629 23.2356 13.7706C22.9368 13.8047 22.6256 13.8488 22.3018 13.9029C22.2448 13.9115 22.1856 13.9241 22.1285 13.9337C21.8518 13.982 21.5696 14.0368 21.2819 14.0979L21.0049 14.1578C20.6998 14.2254 20.3885 14.2991 20.071 14.3789L19.9319 14.4128C19.5646 14.5093 19.188 14.6058 18.8062 14.7178L18.5416 14.7942C18.2365 14.883 17.9277 14.9757 17.615 15.0723L17.3162 15.1688C16.5297 15.416 15.7276 15.6854 14.9193 15.9693L14.5988 16.0833C14.2764 16.1979 13.9544 16.3147 13.6327 16.4338L13.3599 16.5304C12.9566 16.6804 12.5544 16.8322 12.1532 16.9861L11.9695 17.0576C11.6237 17.1896 11.2826 17.3231 10.9464 17.4583L10.6238 17.5867C10.2938 17.7155 9.9673 17.8475 9.64427 17.9827L9.4544 18.0599C9.0705 18.2163 8.69348 18.3724 8.32341 18.5282L8.06711 18.6363L7.21008 19.0004L6.92788 19.1211C6.22024 19.4253 5.55097 19.7188 4.92946 19.9959L4.85992 20.0268C10.2227 16.5403 15.9132 13.5121 21.8619 10.979H21.8567ZM76.5231 61.7944C76.4137 61.6946 76.2751 61.6271 76.1246 61.6003C75.9741 61.5735 75.8185 61.5886 75.6772 61.6438C75.536 61.699 75.4154 61.7917 75.3305 61.9104C75.2456 62.0291 75.2003 62.1685 75.2002 62.3111V63.8454C72.8201 59.5969 69.8037 55.6844 66.2416 52.2252C66.1333 52.1225 65.9946 52.052 65.8431 52.0229C65.6917 51.9938 65.5343 52.0073 65.3911 52.0617C65.248 52.1161 65.1254 52.2088 65.039 52.3282C64.9527 52.4476 64.9064 52.5882 64.9062 52.7322V56.0153C63.0832 52.4768 60.5197 49.3125 57.366 46.7077L57.3059 46.6642C53.4188 44.2287 49.8016 41.4396 46.5077 38.3378L46.5233 38.3445C46.8138 38.4642 47.1071 38.5757 47.4031 38.6787C47.4934 38.7105 47.5847 38.7375 47.676 38.7674C47.8835 38.836 48.0911 38.9036 48.2986 38.9606C48.4148 38.9944 48.531 39.0243 48.6472 39.0571C48.833 39.1083 49.0166 39.1537 49.2023 39.202C49.3258 39.2319 49.4493 39.2589 49.5727 39.2859C49.7522 39.3255 49.9307 39.3632 50.1092 39.397C50.2347 39.4211 50.3582 39.4443 50.4827 39.4656C50.6601 39.4965 50.8355 39.5235 51.0119 39.5496C51.1333 39.567 51.2547 39.5853 51.3761 39.6008C51.5566 39.6239 51.7351 39.6432 51.9135 39.6616C52.0256 39.6732 52.1387 39.6858 52.2487 39.6945C52.4427 39.7109 52.6336 39.7225 52.8235 39.7341C52.9148 39.7389 53.0082 39.7466 53.0995 39.7505C53.3776 39.7621 53.6515 39.7687 53.9192 39.7687C55.9527 39.7934 57.9557 39.3082 59.7181 38.3638C61.4805 37.4195 62.9372 36.0509 63.9351 34.4019C64.1353 34.0909 64.3034 33.8013 64.4404 33.5435C66.5156 35.806 72.0355 42.1432 73.7631 47.4657C73.8772 47.8201 73.9976 48.1571 74.12 48.4776C74.1397 48.5308 74.1615 48.5742 74.1823 48.6302C74.286 48.8996 74.395 49.1613 74.5049 49.4085C74.5163 49.4346 74.5288 49.4577 74.5402 49.4838C76.2605 53.2903 78.454 54.3872 79.6109 54.6982V64.4016C77.6644 62.8276 76.5365 61.8109 76.5283 61.7944H76.5231ZM123.436 83.5546C115.277 79.7774 107.87 74.7347 101.531 68.6426C101.387 68.5087 101.193 68.4324 100.989 68.4301C98.3472 68.2679 95.7644 67.6273 93.386 66.5442C90.6408 65.3361 88.1832 63.6289 86.1581 61.5231L86.1456 61.5105C85.6694 61.0151 85.2118 60.4918 84.7781 59.9491C84.7262 59.8845 84.6743 59.8217 84.6214 59.7561C84.2178 59.2443 83.8329 58.7083 83.4645 58.1541C83.395 58.0498 83.3255 57.9455 83.257 57.8383C82.898 57.2821 82.5563 56.7063 82.2319 56.1109C82.1748 56.0056 82.1198 55.8965 82.0638 55.7902C81.8988 55.4774 81.7525 55.1462 81.5959 54.8246H93.1535C99.2006 63.7595 111.005 64.9163 113.12 65.0534L137.215 87.4759C132.42 86.8872 127.764 85.5621 123.436 83.5546ZM91.7766 74.6815C92.0111 74.8215 92.2436 74.9538 92.4781 75.091C93.1359 75.4772 93.7931 75.8518 94.4495 76.2149C94.7255 76.3684 95.0005 76.521 95.2796 76.6707C95.9775 77.0499 96.673 77.4165 97.3661 77.7706C97.5446 77.8613 97.7241 77.9578 97.9015 78.0466C98.6745 78.4329 99.4444 78.8105 100.209 79.1668V84.8533H97.057L91.5037 74.5212C91.594 74.5743 91.6854 74.6255 91.7798 74.6815H91.7766ZM101.76 79.8736L107.708 87.3765C107.78 87.4663 107.874 87.5392 107.982 87.5895C108.09 87.6398 108.21 87.666 108.33 87.6661H109.348L114.905 96.7148V107.471C114.905 118.514 112.425 133.461 112.027 135.786C108.894 137.599 100.447 138.07 93.7315 138.188L91.6511 137.222L103.168 107.741L106.109 100.898C106.172 100.752 106.182 100.59 106.138 100.438L101.753 85.478V79.8698L101.76 79.8736ZM59.8044 140.966C59.655 140.966 59.6031 140.953 59.4932 141.021C59.3427 141.035 58.6371 141.033 57.4346 139.829C57.3844 139.778 57.3267 139.735 57.2633 139.699C57.5995 139.684 57.9568 139.677 58.3352 139.677H73.0876C74.2995 139.609 84.9815 138.905 86.9737 135.17C88.8226 131.702 98.3716 106.067 98.7762 104.977C98.7835 104.956 98.7907 104.936 98.7959 104.915L100.266 99.4408C100.294 99.3371 100.297 99.2289 100.274 99.124L97.5197 86.3036H100.388L104.575 100.595L101.722 107.233L89.9567 137.342C89.8918 137.508 89.8942 137.69 89.9633 137.854C90.0325 138.019 90.1637 138.154 90.3323 138.234H86.2795C86.1975 138.234 85.9195 138.229 85.4878 138.258C81.0086 138.443 79.1367 140.158 78.5007 140.972L59.8044 140.966ZM120.791 103.316C120.615 104.431 117.85 122.214 117.85 137.585C117.85 137.756 117.916 137.922 118.035 138.052C118.154 138.183 118.319 138.27 118.501 138.298L127.32 139.666C127.43 139.684 127.543 139.679 127.651 139.652C130.111 139.143 132.684 139.476 134.902 140.589C132.626 140.364 129.868 140.278 128.662 140.966H87.7425C87.6836 140.963 87.6246 140.969 87.5682 140.985C87.562 140.985 86.7381 141.096 85.354 139.809C85.3222 139.78 85.2875 139.754 85.2502 139.731C85.4349 139.713 85.5937 139.701 85.7337 139.692C85.9143 139.688 86.0855 139.677 86.2753 139.677H87.3939C88.3142 139.677 89.3653 139.677 90.5066 139.677H93.6257C93.6993 139.675 93.7723 139.663 93.8425 139.642C101.049 139.515 109.954 138.979 113.198 136.803C113.364 136.691 113.475 136.522 113.509 136.333C113.538 136.167 116.46 119.54 116.46 107.475V96.5266C116.459 96.4005 116.423 96.2768 116.356 96.1674L111.138 87.67H115.239L120.794 96.7187L120.791 103.316ZM115.836 82.809C115.724 82.7885 115.607 82.7915 115.496 82.8178C115.385 82.844 115.281 82.8928 115.192 82.9607C115.104 83.0287 115.032 83.114 114.983 83.2106C114.934 83.3073 114.909 83.4129 114.909 83.5198V86.2235H108.727L102.895 78.8684C102.819 78.7715 102.718 78.6938 102.601 78.6425C102.173 78.4551 101.748 78.2643 101.326 78.0698C100.396 77.6437 99.4597 77.193 98.5168 76.718C95.5674 75.2218 92.7029 73.5848 89.935 71.8136C86.9498 69.9114 84.003 67.8343 81.1735 65.6337V57.3545L81.2078 57.4096C81.2586 57.4974 81.3115 57.5786 81.3624 57.6645C81.545 57.9716 81.7297 58.2738 81.9185 58.5645C82.0005 58.691 82.0845 58.8117 82.1675 58.9363C82.3304 59.1767 82.4934 59.4191 82.6583 59.645C82.7538 59.7764 82.8493 59.9037 82.9447 60.0312C83.1045 60.2446 83.2643 60.4542 83.4272 60.657C83.5268 60.7857 83.6267 60.9086 83.727 61.0258C83.891 61.2247 84.057 61.4168 84.223 61.6051C84.3268 61.7181 84.4212 61.8311 84.5208 61.9403C84.6961 62.1334 84.8736 62.3178 85.051 62.5003C85.1423 62.5968 85.2336 62.6935 85.326 62.7833C85.5335 62.989 85.741 63.185 85.9485 63.3771C86.0139 63.437 86.0782 63.5016 86.1425 63.5605C86.4192 63.8109 86.6959 64.051 86.9726 64.2809C87.0099 64.3118 87.0463 64.3398 87.0837 64.3697C87.3202 64.5629 87.5568 64.7508 87.7933 64.9336C87.8846 65.0032 87.976 65.0678 88.0673 65.1354C88.2499 65.2706 88.4315 65.4039 88.6131 65.5304C88.7168 65.6028 88.8206 65.6714 88.9243 65.7409C89.0945 65.8559 89.2626 65.9678 89.4307 66.0759C89.5344 66.1435 89.6382 66.2093 89.7419 66.2691C89.9059 66.3715 90.0695 66.4703 90.2327 66.5656L90.544 66.7451C90.7072 66.8378 90.8694 66.9271 91.0306 67.0127C91.1281 67.0658 91.2257 67.1189 91.3222 67.1691C91.4965 67.2599 91.6677 67.3448 91.841 67.4288C91.9188 67.4674 91.9987 67.5079 92.0755 67.5446C92.3214 67.6624 92.5642 67.7735 92.8018 67.8768C95.2672 68.9813 97.9302 69.6537 100.657 69.8602C101.494 70.6327 102.335 71.381 103.179 72.112C103.45 72.3466 103.721 72.5697 103.992 72.7995C104.57 73.2881 105.148 73.7719 105.729 74.2412C106.049 74.499 106.369 74.7491 106.69 75.0011C107.23 75.426 107.772 75.8425 108.315 76.2506C108.647 76.4988 108.979 76.7451 109.312 76.9865C109.858 77.3837 110.405 77.7699 110.953 78.1452C111.275 78.3673 111.597 78.5923 111.918 78.8076C112.517 79.2093 113.118 79.5946 113.719 79.9741C113.988 80.145 114.256 80.3217 114.526 80.4878C115.396 81.0227 116.269 81.5403 117.145 82.0327L117.248 82.0897C118.009 82.5126 118.77 82.9189 119.531 83.3083C118.314 83.2031 117.084 83.0331 115.839 82.809H115.836ZM150.364 103.718C150.311 103.8 150.17 104.016 149.514 104.016C141.494 104.016 129.965 91.2698 125.546 86.0149C125.605 86.0381 125.661 86.0574 125.721 86.0806C125.915 86.154 126.103 86.2225 126.294 86.293C126.569 86.3896 126.843 86.4949 127.111 86.5885C127.308 86.658 127.5 86.7228 127.692 86.7884C127.944 86.8734 128.193 86.9564 128.438 87.0356C128.629 87.1 128.818 87.1599 129.004 87.2152C129.242 87.2886 129.476 87.3591 129.706 87.4267C129.886 87.4798 130.065 87.5328 130.24 87.5821C130.47 87.6477 130.693 87.7076 130.917 87.7665C131.079 87.811 131.244 87.8554 131.403 87.896C131.636 87.9558 131.857 88.0089 132.08 88.062C132.218 88.0949 132.36 88.1306 132.495 88.1586C132.778 88.2233 133.049 88.2822 133.317 88.3382L133.697 88.4154C133.949 88.4656 134.198 88.512 134.434 88.5564C134.562 88.5796 134.679 88.598 134.801 88.6183C134.97 88.6472 135.141 88.6762 135.301 88.7013L135.661 88.7544C135.809 88.7757 135.954 88.7969 136.093 88.8152L136.42 88.8558C136.552 88.8722 136.679 88.8867 136.802 88.9002C136.906 88.9109 136.999 88.9215 137.093 88.9302L137.425 88.9611L137.676 88.9813L137.966 89.0016L138.173 89.0141L138.432 89.0258L138.573 89.0315C138.691 89.0315 138.796 89.0382 138.884 89.0392C139.275 89.4254 140.129 90.2521 141.263 91.3055L141.292 91.3335L141.83 91.8317L141.889 91.8868C142.044 92.0297 142.2 92.1766 142.367 92.3253L142.533 92.4778C142.672 92.6052 142.818 92.7356 142.962 92.8641L143.211 93.091L143.612 93.4501L143.924 93.7244C144.05 93.8374 144.18 93.9513 144.31 94.0642L144.653 94.3685L145.05 94.7122C145.167 94.8087 145.282 94.915 145.4 95.0164C145.519 95.1178 145.663 95.2404 145.795 95.3534C145.926 95.4664 146.038 95.562 146.161 95.6653L146.565 96.0032L146.928 96.3055L147.32 96.6261L147.703 96.937C147.829 97.0394 147.956 97.1388 148.083 97.2402L148.411 97.5009C150.893 102.005 150.606 103.348 150.364 103.718ZM156.789 99.3665C156.615 99.5486 156.4 99.692 156.159 99.7861C155.918 99.8802 155.657 99.9226 155.396 99.9101C154.952 99.9101 153.49 99.576 149.529 96.4889C144.954 92.9238 139.838 87.8708 139.787 87.8206L139.777 87.8139L139.77 87.8043L114.014 63.8358C113.876 63.7074 113.691 63.6319 113.495 63.6243C113.364 63.6195 100.258 63.0285 94.2586 53.7286C94.1891 53.6218 94.0913 53.5333 93.9744 53.4719C93.8575 53.4105 93.7256 53.3782 93.5914 53.3781H80.414C80.3383 53.3733 77.2286 53.1194 75.2582 47.0495C73.0233 40.1647 65.1293 32.0583 64.7941 31.7165C64.7016 31.6228 64.5844 31.5533 64.4541 31.5148C64.3237 31.4764 64.1849 31.4704 64.0513 31.4974C63.9393 31.5234 63.835 31.5726 63.7464 31.6415C63.6578 31.7104 63.5871 31.7972 63.5397 31.8952C63.5221 31.928 63.4889 31.9512 63.4775 31.9917C63.4494 32.0777 61.2508 38.3252 53.9316 38.3252C53.2657 38.3256 52.6004 38.2917 51.9385 38.2238C51.7195 38.2016 51.5234 38.1562 51.3097 38.1272C50.9019 38.0712 50.4889 38.0211 50.1071 37.9399C49.883 37.8936 49.6817 37.8259 49.4669 37.7719C49.1214 37.685 48.7676 37.6048 48.4438 37.5005C48.2239 37.43 48.0288 37.3422 47.8213 37.2639C47.5287 37.1558 47.2257 37.0545 46.9529 36.9338C46.7536 36.8449 46.5804 36.7406 46.3915 36.6498C46.1373 36.5233 45.8727 36.4026 45.6382 36.2636C45.4566 36.1583 45.3031 36.0444 45.1329 35.9362C44.9254 35.8001 44.6982 35.6679 44.5104 35.5259C44.3495 35.4081 44.2167 35.2845 44.0683 35.1638C43.8992 35.0248 43.7155 34.8876 43.564 34.7467C43.4126 34.6057 43.3202 34.4917 43.1988 34.3604C43.0774 34.2291 42.9281 34.091 42.816 33.9568C42.7486 33.8515 42.6925 33.7568 42.6323 33.6574C42.5722 33.5579 42.4881 33.4286 42.4248 33.3233C42.3615 33.2181 42.3086 33.108 42.2515 33.0018C42.2059 32.9168 42.154 32.826 42.1146 32.7459C42.0253 32.5692 41.9485 32.405 41.8832 32.2525C41.6792 31.8225 41.5443 31.367 41.4827 30.9006V30.8398C41.4827 27.1608 41.767 24.6193 45.7057 20.3638C45.8022 20.2598 45.8649 20.1324 45.8865 19.9964C45.9081 19.8604 45.8876 19.7216 45.8276 19.596C45.7675 19.4704 45.6703 19.3633 45.5473 19.2873C45.4243 19.2112 45.2806 19.1693 45.1329 19.1665C45.0291 19.1665 34.8276 18.9473 30.6243 17.8272C28.6062 17.2874 24.6208 17.5799 21.6544 17.9169C21.6865 17.8831 21.7155 17.8465 21.7477 17.8136C21.8598 17.6939 21.9719 17.5839 22.0839 17.4699C22.2717 17.2768 22.4616 17.0904 22.6546 16.9079C22.786 16.783 22.9178 16.662 23.0499 16.5449C23.2304 16.3826 23.4152 16.2261 23.5998 16.0707C23.7389 15.9557 23.8779 15.836 24.0149 15.7279C24.2916 15.5097 24.571 15.2998 24.8533 15.0983C25.0234 14.9786 25.1884 14.8705 25.3544 14.7594C25.5007 14.6629 25.646 14.5663 25.7891 14.4784C25.9645 14.3684 26.1388 14.2592 26.3079 14.1597C26.419 14.095 26.5248 14.038 26.6327 13.9782C26.944 13.8073 27.2356 13.6518 27.5168 13.5138C27.6205 13.4655 27.716 13.4172 27.8124 13.3709C27.966 13.2994 28.1186 13.2299 28.2628 13.1671C28.3769 13.1178 28.4838 13.0705 28.5906 13.031C28.7909 12.9498 28.9777 12.8765 29.152 12.8137C29.2558 12.777 29.3533 12.7403 29.4446 12.7094C29.5359 12.6785 29.6158 12.6515 29.6936 12.6274C29.8243 12.5858 29.9489 12.5472 30.0516 12.5182L30.1979 12.4786L30.3991 12.4265L30.4822 12.4072L30.5299 12.3966L30.5579 12.3908C30.6634 12.3705 30.7633 12.3303 30.8516 12.2729C30.8769 12.2524 30.9005 12.2302 30.9221 12.2063C30.9739 12.1689 31.0203 12.1254 31.0601 12.0769C31.2773 11.9683 31.479 11.835 31.6608 11.68C31.6868 11.6588 31.7138 11.6395 31.7387 11.6173C31.9054 11.4667 32.0527 11.2985 32.1776 11.1161C32.2004 11.0813 32.2232 11.0476 32.245 11.0129C32.3634 10.8264 32.4572 10.6273 32.5242 10.42C32.5356 10.3871 32.5407 10.3543 32.5501 10.3234C32.6161 10.0983 32.651 9.86623 32.6539 9.63292C32.653 8.89662 32.3383 8.19074 31.7789 7.6701C31.2194 7.14946 30.4609 6.8566 29.6697 6.85583C29.5121 6.85591 29.3548 6.86887 29.1997 6.8945H29.1904C29.1281 6.87877 29.0639 6.87063 28.9994 6.87033C28.9652 6.86392 28.9305 6.85937 28.8957 6.85678C28.7875 6.86108 28.6815 6.88643 28.5844 6.93115L25.6926 8.27632L24.736 8.57371C24.8802 8.38638 25.0275 8.18737 25.1759 7.96914C26.8106 5.94013 28.9324 4.29494 31.3719 3.16477C33.8113 2.03459 36.5009 1.45077 39.2259 1.45997C44.459 1.64849 49.6521 2.391 54.7046 3.67315L53.5841 4.19368C53.4488 4.25658 53.3362 4.35472 53.26 4.47622C53.1837 4.59772 53.1472 4.73729 53.1548 4.87781C53.1624 5.01833 53.2138 5.15373 53.3027 5.2675C53.3917 5.38127 53.5143 5.46849 53.6556 5.51845C56.1591 6.51509 58.4469 7.92732 60.4072 9.68608C60.2464 9.64904 60.0836 9.61965 59.9196 9.59814C59.7665 9.57835 59.6107 9.60132 59.4717 9.66415C59.3328 9.72698 59.217 9.82687 59.1392 9.95105C59.0614 10.0752 59.025 10.2181 59.0346 10.3616C59.0442 10.5051 59.0995 10.6427 59.1933 10.757C59.2483 10.8245 64.6354 17.5162 63.4837 22.3771C63.3799 22.5393 63.135 22.887 62.7968 23.335C61.3016 16.4792 56.7788 4.1193 43.6367 4.1193C43.4471 4.11961 43.2642 4.18434 43.1223 4.3013C42.9803 4.41825 42.8891 4.5793 42.8658 4.7544C42.8425 4.92949 42.8886 5.10652 42.9956 5.25217C43.1026 5.39783 43.2631 5.5022 43.4468 5.54556C43.5734 5.57549 56.0286 8.7369 57.4294 28.4847C55.9885 29.4852 54.2566 30.0573 52.4604 30.1262C52.254 30.1262 52.056 30.2025 51.9101 30.3383C51.7642 30.4741 51.6822 30.6583 51.6822 30.8504C51.6822 31.0424 51.7642 31.2267 51.9101 31.3625C52.056 31.4983 52.254 31.5746 52.4604 31.5746C54.7256 31.4934 56.9049 30.7467 58.6859 29.4416L58.7004 29.4348C58.7274 29.4165 58.7533 29.3942 58.7803 29.3759C59.1206 29.1441 59.4492 28.9027 59.766 28.6517L59.8241 28.6054C61.7947 26.991 63.4981 25.1144 64.8793 23.0366C64.9602 22.9236 70.6286 15.1524 78.9344 15.1524C88.1389 15.1524 96.5371 20.2701 101.993 24.5854C131.267 47.7534 148.745 66.467 148.745 74.6448V75.6346L145.662 72.7647C145.519 72.6298 145.325 72.5524 145.121 72.549C144.918 72.5457 144.721 72.6167 144.573 72.7468C144.425 72.8769 144.338 73.0558 144.33 73.2451C144.322 73.4344 144.394 73.619 144.531 73.7594C144.661 73.8945 157.568 87.4411 157.568 95.1738C157.568 95.2061 157.571 95.2383 157.575 95.2703C157.681 96.0447 157.766 98.3226 156.789 99.3645V99.3665ZM59.0106 27.3172L58.9069 27.4051C57.7656 14.7642 52.2248 8.84787 48.1844 6.17795C57.4511 8.86429 60.5494 19.5932 61.5247 24.8761C61.4977 24.907 61.4677 24.9388 61.4396 24.9726C61.0443 25.4159 60.6459 25.8417 60.2423 26.228C60.2257 26.2444 60.207 26.2598 60.1904 26.2753C59.7982 26.6451 59.406 26.9908 59.0106 27.3152V27.3172Z" fill="white"/>
</svg>
