<svg width="168" height="144" viewBox="0 0 168 144" fill="none" xmlns="http://www.w3.org/2000/svg">
<g clip-path="url(#clip0_9_485)">
<g clip-path="url(#clip1_9_485)">
<path d="M5.22432 108.261C6.69 106.787 8.21861 105.351 9.57125 103.802C11.3102 101.813 12.6462 99.6197 13.6944 97.2876C14.7225 94.9983 15.9231 92.7651 17.0036 90.492C17.4718 89.5081 17.8415 88.488 18.2293 87.4765C18.4778 86.8272 18.9853 86.4127 19.8362 86.0673C19.8362 86.4556 19.8397 86.7673 19.8362 87.0789C19.7768 91.8512 19.6935 96.6234 19.6664 101.396C19.6533 103.701 20.4198 105.91 20.9963 108.138C21.1877 108.879 21.4455 109.606 21.6739 110.338C22.0935 111.689 21.8345 112.992 21.3826 114.308C20.7181 116.246 20.1416 118.205 19.5271 120.155C19.1169 121.458 18.6357 122.749 18.3126 124.068C17.5697 127.101 17.7422 130.154 18.2389 133.199C18.5014 134.804 18.7726 136.396 18.1926 138.004C17.9668 138.632 17.8051 139.313 17.8345 139.963C17.8893 141.154 18.8212 141.924 20.1987 142.047C21.5158 142.165 22.8364 142.276 24.1581 142.327C25.8886 142.396 27.6264 142.482 29.3546 142.419C31.4347 142.342 33.5054 142.105 35.5817 141.965C36.1606 141.925 36.2567 141.652 36.1926 141.259C36.1012 140.699 35.9861 140.143 35.8716 139.548C35.9669 139.507 36.0703 139.453 36.1819 139.418C37.1173 139.121 37.5156 138.358 36.9734 137.633C36.4481 136.93 35.7897 136.291 35.1334 135.669C34.5332 135.099 33.7714 134.644 33.2351 134.038C32.4292 133.124 31.7114 132.145 31.0457 131.15C30.4669 130.284 30.5988 129.308 30.9018 128.407C31.3962 126.946 31.8527 125.446 32.6346 124.094C33.4501 122.684 34.4889 121.325 35.6895 120.135C37.205 118.632 38.9891 117.328 40.6462 115.928C42.3292 114.508 43.4788 112.83 44.0145 110.843C44.2249 110.063 44.4996 109.294 44.8003 108.535C44.855 108.398 45.1831 108.249 45.3733 108.26C47.5545 108.38 49.7307 108.58 51.9131 108.654C53.331 108.703 54.7588 108.58 56.1813 108.535C56.5379 108.523 56.8968 108.526 57.2534 108.514C60.1061 108.429 62.9696 108.444 65.8066 108.219C67.6929 108.069 69.4569 107.376 71.1496 106.613C72.3595 106.067 73.5967 105.566 74.8544 105.031C75.6768 105.746 76.1202 106.632 76.3888 107.593C77.2197 110.57 77.4717 113.609 77.6844 116.651C77.7974 118.26 77.9923 119.869 77.9885 121.478C77.985 123.262 77.7639 125.043 77.7021 126.828C77.6689 127.786 77.8758 128.754 77.7936 129.705C77.6544 131.307 77.4158 132.905 77.1256 134.494C77.0303 135.013 76.6548 135.498 76.3946 135.993C75.6873 137.333 75.8478 138.515 76.9176 139.376C77.1326 139.549 77.4868 139.698 77.7709 139.689C80.8196 139.589 83.8661 139.437 86.9148 139.337C88.874 139.273 90.8364 139.264 92.7971 139.256C93.0578 139.255 93.3882 139.343 93.5676 139.493C94.263 140.072 95.1426 140.073 95.9927 140.083C98.4206 140.113 100.849 140.095 103.279 140.092C104.292 140.091 105.309 140.136 106.314 140.066C106.978 140.02 107.628 139.817 108.277 139.665C108.643 139.578 108.985 139.411 109.355 139.349C110.898 139.092 110.918 138.799 110.616 137.44C110.516 136.992 110.02 136.604 109.691 136.197C109.382 135.815 109.068 135.434 108.725 135.074C108.61 134.952 108.365 134.926 108.236 134.81C107.089 133.78 105.772 132.86 105.107 131.501C104.941 131.165 104.846 130.791 104.799 130.428C104.466 127.892 104.043 125.36 103.87 122.816C103.739 120.886 103.951 118.941 103.985 117.002C104.012 115.381 103.961 113.759 104.02 112.139C104.09 110.219 104.117 108.289 104.384 106.387C104.811 103.357 104.757 100.328 104.574 97.3028C104.419 94.7465 104.009 92.2015 103.75 89.6484C103.732 89.4549 103.953 89.1543 104.164 89.0464C106.455 87.8758 108.758 86.7213 111.072 85.5867C113.664 84.3161 116.274 83.0691 119.131 81.6887C119.623 82.1746 120.188 82.7624 120.789 83.3198C121.324 83.814 121.915 84.2632 122.453 84.7541C123.144 85.3829 123.843 86.0082 124.468 86.6829C125.08 87.3431 125.598 87.5886 126.079 87.3084C126.636 86.9855 126.795 86.0818 126.377 85.5185C126.215 85.3015 126.027 85.0927 125.816 84.9102C124.199 83.5103 123.453 81.6977 122.595 79.9372C122.516 79.7761 122.431 79.6173 122.291 79.3441C123.261 78.9548 124.227 78.5525 125.209 78.1807C125.882 77.926 126.567 77.6866 127.265 77.4888C128.572 77.118 129.563 76.3876 130.437 75.5173C130.978 74.9794 131.682 74.6758 132.381 75.0781C134.093 76.0634 136.072 76.0877 137.979 76.3923C138.079 76.4085 138.186 76.4078 138.278 76.4382C138.672 76.5686 139.108 76.7174 139.352 76.3069C139.485 76.0827 139.42 75.771 139.46 75.3215C139.826 74.8885 140.605 75.0566 141.286 74.9874C142.04 74.91 142.804 74.8426 143.561 74.8661C144.105 74.8833 144.655 75.0221 145.18 75.1647C148.434 76.0489 151.779 76.3221 155.122 75.8617C157.379 75.5508 159.691 75.1802 161.632 73.9616C162.921 73.1528 164.099 72.2806 164.4 70.843C164.463 70.5486 164.41 70.2357 164.285 69.8261C160.945 72.4711 156.919 72.4456 152.671 72.3834C153.77 71.445 155.515 71.1619 155.39 69.4196C153.932 69.8771 152.58 70.3223 151.209 70.7249C149.713 71.1639 148.198 71.5227 146.553 70.8962C147.409 70.6362 148.242 70.2604 149.124 70.138C152.191 69.7143 154.391 68.2867 156.114 66.1309C157.217 64.7505 158.068 63.2997 158.619 61.7011C159.199 60.017 159.183 58.2963 159.094 56.5722C158.985 54.4704 157.961 52.5784 157.171 50.6336C156.358 48.6327 155.909 46.5573 156.209 44.4575C156.524 42.2661 157.374 40.1855 158.744 38.2864C159.357 37.4387 159.905 36.5524 160.58 35.7446C161.878 34.1909 163.627 33.1414 165.764 32.574C166.365 32.4152 166.952 32.2155 167.555 32.0646C168.113 31.925 168.041 31.487 167.895 31.271C167.325 30.4265 167.514 29.5258 167.493 28.6403C167.47 27.7611 166.805 27.2599 166.018 27.7509C164.722 28.5607 163.197 28.6698 161.796 29.1313C159.009 30.0492 156.523 31.4276 154.41 33.2066C152.207 35.0597 150.273 37.0913 149.106 39.6334C148.133 41.7547 146.941 43.8165 146.497 46.0724C145.997 48.6225 146.052 51.1867 146.65 53.7493C146.939 54.9831 146.96 56.2679 147.013 57.5321C147.026 57.8583 146.767 58.2393 146.516 58.5162C145.775 59.3343 144.977 60.1126 144.342 60.7629C143.085 60.3911 141.918 60.0088 140.725 59.7031C139.521 59.3955 138.425 58.9585 137.431 58.2828C136.641 57.7449 135.731 57.3404 134.899 56.8442C133.443 55.9772 132.027 55.0612 130.559 54.2117C129.529 53.6157 128.468 53.0521 127.374 52.5479C125.591 51.7249 123.788 50.928 121.958 50.1821C120.263 49.4924 118.417 49.5758 116.626 49.7094C114.125 49.896 111.741 50.5123 109.567 51.6247C107.632 52.6151 105.72 53.6379 103.79 54.6355C102.732 55.1816 101.561 55.3364 100.344 55.314C99.6626 55.3017 98.9718 55.2458 98.3015 55.3172C97.2131 55.4333 96.4198 54.8343 95.5277 54.5276C93.4322 53.8072 91.2973 53.3223 89.0474 53.1522C87.2534 53.0169 85.4728 52.7612 83.6805 52.6061C80.766 52.3544 77.8682 52.3861 75.1189 53.3977C73.5154 53.9875 71.9749 54.7029 70.3691 55.2845C69.9472 55.4373 69.3634 55.3791 68.8868 55.2905C67.0302 54.9451 65.1901 54.5356 63.3373 54.1728C61.6863 53.8499 60.0173 53.5942 58.3759 53.2406C55.3997 52.5989 52.6041 53.3477 49.8213 54.0444C47.803 54.5498 45.8193 55.1794 43.8724 55.8631C42.4924 56.348 41.1493 56.9471 39.8788 57.6175C37.8142 58.7065 35.7093 59.7765 33.8276 61.0743C31.7962 62.4762 29.9206 64.0656 28.1284 65.6947C26.531 67.1455 25.095 68.7329 23.671 70.3161C22.5916 71.5162 21.5399 72.752 20.6671 74.0642C19.5391 75.7615 18.5156 77.52 17.616 79.3142C17.1001 80.34 16.9101 81.4864 16.5853 82.5814C16.2418 83.741 15.9601 84.9144 15.568 86.0609C14.9617 87.8306 14.3153 89.591 13.6257 91.3382C13.0742 92.7374 12.4741 94.1238 11.8226 95.4912C11.2688 96.6566 10.627 97.7915 9.99688 98.9297C9.12551 100.505 8.31504 102.11 7.31519 103.626C6.48316 104.886 5.50837 106.1 4.41617 107.203C3.84196 107.78 2.81881 108.011 2.09952 108.509C1.01549 109.258 0.22977 110.207 -0.000671387 111.653C0.782713 111.345 1.43034 111.136 2.02611 110.848C3.33563 110.217 4.2673 109.223 5.22432 108.261ZM88.9352 129.979C89.337 129.287 89.5747 128.497 89.7186 127.729C90.1227 125.584 90.451 123.429 90.7872 121.276C91.0689 119.471 91.3221 117.664 91.5883 115.858C91.6396 115.861 91.6909 115.865 91.7413 115.868C92.0906 117.11 92.4486 118.35 92.7889 119.594C93.3643 121.699 93.4951 123.816 93.1723 125.969C92.9856 127.218 92.7519 128.53 93.4296 129.711C94.2421 131.128 94.0582 132.542 93.718 133.979C93.5161 134.836 93.2285 135.678 92.9209 136.724C92.5095 136.298 92.2488 136.045 92.0099 135.779C91.2434 134.916 90.5078 134.032 89.7186 133.185C88.8193 132.222 88.1842 131.272 88.9352 129.979Z" fill="white"/>
</g>
</g>
<defs>
<clipPath id="clip0_9_485">
<rect width="168" height="144" fill="white"/>
</clipPath>
<clipPath id="clip1_9_485">
<rect width="168" height="144" fill="white" transform="translate(0 13)"/>
</clipPath>
</defs>
</svg>
