<svg width="169" height="104" viewBox="0 0 169 104" fill="none" xmlns="http://www.w3.org/2000/svg">
<path fill-rule="evenodd" clip-rule="evenodd" d="M74.4137 33.8661L67.3497 18.1894C67.3497 18.1894 102.389 4.05597 120.28 15.4219C138.17 26.7879 128.373 37.2404 128.373 37.2404" fill="#26BBEC"/>
<path d="M74.4137 33.8661L67.3497 18.1894C67.3497 18.1894 102.389 4.05597 120.28 15.4219C138.17 26.7879 128.373 37.2404 128.373 37.2404" stroke="white" stroke-width="21.3333" stroke-miterlimit="10" stroke-linecap="round" stroke-linejoin="round"/>
<path fill-rule="evenodd" clip-rule="evenodd" d="M99.2 93.0001C127.615 93.0001 158 75.0357 158 56.9204C158 38.805 127.615 20.8406 99.2 20.8406C70.7849 20.8406 35.4999 56.9204 35.4999 56.9204C35.4999 56.9204 70.7849 93.0001 99.2 93.0001Z" fill="white" stroke="white" stroke-width="21.3333" stroke-miterlimit="10" stroke-linecap="round" stroke-linejoin="round"/>
<path d="M135.95 56.9202C138.656 56.9202 140.85 53.9832 140.85 50.3603C140.85 46.7373 138.656 43.8003 135.95 43.8003C133.244 43.8003 131.05 46.7373 131.05 50.3603C131.05 53.9832 133.244 56.9202 135.95 56.9202Z" fill="white"/>
<path fill-rule="evenodd" clip-rule="evenodd" d="M37.9498 55.4238C37.9498 55.4238 -0.692883 21.6646 17.861 55.7657C17.861 55.7657 3.28899 65.1571 16.6182 72.0541C29.9475 78.9503 37.9498 55.4238 37.9498 55.4238Z" fill="white" stroke="white" stroke-width="21.3333" stroke-miterlimit="10" stroke-linecap="round" stroke-linejoin="round"/>
<path d="M96.473 66.7601C96.473 66.7601 96.4601 76.5476 82.0498 79.4512C82.0498 79.4512 101.636 83.1166 111.45 69.02" stroke="white" stroke-width="21.3333" stroke-miterlimit="10" stroke-linecap="round" stroke-linejoin="round"/>
</svg>
