<svg width="175" height="119" viewBox="0 0 175 119" fill="none" xmlns="http://www.w3.org/2000/svg">
<path d="M175 62.9674C175 32.4042 159.581 16.2515 145.833 1.84093C140.972 -3.25295 139.033 3.47606 140.972 6.9348C143.442 11.3257 155.556 47.6858 131.25 47.6858H121.528C97.2222 47.6858 91.525 41.7158 77.7778 27.3103C55.9028 4.38786 43.75 27.3103 34.0278 27.3103C4.86111 27.3103 0 18.0802 0 37.498C0 52.7797 14.5833 57.8735 29.1667 57.8735C43.75 57.8735 43.75 62.9674 53.4722 78.249C58.6785 86.4298 67.2583 94.6054 77.8896 99.414C79.0174 105.114 91.3743 119 98.8458 119C106.672 119 106.944 112.159 106.944 103.718H131.25C131.415 103.718 131.571 103.667 131.741 103.667C133.156 103.693 134.594 103.718 136.111 103.718C136.111 108.812 144.487 119 152.318 119C160.144 119 160.417 112.159 160.417 103.718C160.417 102.18 160.14 100.728 159.751 99.3326C168.253 94.5137 175 84.4075 175 62.9674Z" fill="white"/>
</svg>
